<svg xmlns="http://www.w3.org/2000/svg" xmlns:xlink="http://www.w3.org/1999/xlink" width="30.771" height="32.271" viewBox="0 0 30.771 32.271"><defs><linearGradient id="a" x1="2.604" y1="-0.083" x2="2.183" y2="-0.613" gradientUnits="objectBoundingBox"><stop offset="0" stop-color="#fff"/><stop offset="1" stop-color="#fff"/></linearGradient></defs><g transform="translate(0 0)"><path d="M10.6,14.421H2.05L5,10.387l.742-1.018.478-.628Z" transform="translate(-1.685 0.742)"/><path d="M10.57,14.27,6.02,8.35H16.025Z" transform="translate(-0.665 0.642)"/><path d="M11.2,14.02,16.91,30.172,2.09,14.02Z" transform="translate(-1.675 2.099)"/><path d="M10.47,14.28,15.1,9.29l4.613,4.99Z" transform="translate(0.478 0.883)"/><path d="M20.208,14.02,15.18,28.274,10.14,14.02Z" transform="translate(0.393 2.099)"/><path d="M19.775,14.27,14.32,8.35H24.325Z" transform="translate(1.468 0.642)"/><path d="M20.127,14.02h9.151L14.42,30.172Z" transform="translate(1.493 2.099)"/><path d="M19.45,14.414,23.787,8.77l1.584,2.074,2.614,3.57Z" transform="translate(2.786 0.749)"/><path d="M19.68,8.1a.691.691,0,0,1-.478-.163.666.666,0,0,1-.264-.49.742.742,0,0,1,.264-.54l2.225-2.74a.754.754,0,0,1,.6-.264.641.641,0,0,1,.427.163A.742.742,0,0,1,22.571,5.1L20.3,7.838a.754.754,0,0,1-.616.264Zm-8.17,0a.792.792,0,0,1-.628-.251L8.606,5.135A.729.729,0,0,1,8.682,4.1a.742.742,0,0,1,1.043.075l2.288,2.69a.666.666,0,0,1,.163.528.7.7,0,0,1-.251.5.729.729,0,0,1-.415.176Zm4.11-.352a.729.729,0,0,1-.742-.729V1.842a.742.742,0,0,1,1.471,0V7a.729.729,0,0,1-.729.729Z" transform="translate(-0.047 -1.197)"/><g transform="translate(0 9.469)"><path d="M1.76,14.914s1.672,2.212,4.148-.1c1.722-1.6,4.764-.39,4.764-.39L6.3,8.73Z" transform="translate(-1.76 -8.73)" opacity="0.4" fill="url(#a)" style="mix-blend-mode:overlay;isolation:isolate"/></g></g></svg>