<svg xmlns="http://www.w3.org/2000/svg" xmlns:xlink="http://www.w3.org/1999/xlink" width="45.815" height="30.829" viewBox="0 0 45.815 30.829"><defs><clipPath id="a"><path d="M44.013,53.442a1.281,1.281,0,0,1-.034.382l-2.826,11.3a1.285,1.285,0,0,1-1.24.973l-16.956.086H5.995a1.284,1.284,0,0,1-1.246-.974L1.922,53.866a1.282,1.282,0,0,1-.034-.392,2.7,2.7,0,1,1,2.522-.491l3.538,3.565a4.8,4.8,0,0,0,7.238-.49L21,48.354a2.7,2.7,0,1,1,3.855-.046l0,.006,5.773,7.726a4.818,4.818,0,0,0,3.842,1.926,4.765,4.765,0,0,0,3.392-1.4L41.428,53a2.7,2.7,0,1,1,2.585.442ZM40.877,70.212a1.285,1.285,0,0,0-1.285-1.285H6.366a1.285,1.285,0,0,0-1.285,1.285v3.083a1.285,1.285,0,0,0,1.285,1.285H39.593a1.285,1.285,0,0,0,1.285-1.285Z" transform="translate(0 -43.75)" fill="#cecece"/></clipPath><linearGradient id="b" x1="0.007" y1="-0.415" x2="1.325" y2="1.816" gradientUnits="objectBoundingBox"><stop offset="0" stop-color="#e9c156"/><stop offset="0.05" stop-color="#e8bd51"/><stop offset="0.29" stop-color="#e1ab39"/><stop offset="0.31" stop-color="#e3b141"/><stop offset="0.41" stop-color="#edcd66"/><stop offset="0.52" stop-color="#f5e384"/><stop offset="0.62" stop-color="#fbf299"/><stop offset="0.72" stop-color="#fefca6"/><stop offset="0.82" stop-color="#ffa"/><stop offset="0.85" stop-color="#fdfaa3"/><stop offset="0.9" stop-color="#f8ec90"/><stop offset="0.96" stop-color="#f0d571"/><stop offset="1" stop-color="#e9c156"/></linearGradient><linearGradient id="c" x1="0.245" y1="0.155" x2="0.887" y2="1.023" gradientUnits="objectBoundingBox"><stop offset="0" stop-color="#073c38" stop-opacity="0.412"/><stop offset="0.05" stop-color="#e8bd51"/><stop offset="0.29" stop-color="#e1ab39"/><stop offset="0.31" stop-color="#e3b141"/><stop offset="0.41" stop-color="#edcd66"/><stop offset="0.52" stop-color="#f5e384"/><stop offset="0.62" stop-color="#fbf299"/><stop offset="0.72" stop-color="#fefca6"/><stop offset="0.82" stop-color="#ffa"/><stop offset="0.85" stop-color="#fdfaa3"/><stop offset="0.9" stop-color="#f8ec90"/><stop offset="0.96" stop-color="#f0d571"/><stop offset="1" stop-color="#e9c156"/></linearGradient></defs><g clip-path="url(#a)"><g transform="translate(-23.811 -35.384)"><path d="M48.184,11.839c0,3.486-3.67,6.294-8.22,6.294a10.514,10.514,0,0,1-2.771-.367A1.688,1.688,0,0,1,35.6,18.9a1.633,1.633,0,0,1-.826-.22A14.678,14.678,0,0,0,37.615,16.3a.367.367,0,0,1,.312-.092,8.257,8.257,0,0,0,2.037.239,7.853,7.853,0,0,0,4.771-1.486,4.018,4.018,0,0,0,1.743-3.119,4,4,0,0,0-1.743-3.1A7.229,7.229,0,0,0,41.579,7.38V5.674C45.377,6.279,48.184,8.811,48.184,11.839ZM13.652,18.9a1.651,1.651,0,0,0,.881-.257,14.368,14.368,0,0,1-2.294-1.835l-.422-.532-.11-.147a8.716,8.716,0,0,1-2.33.312,7.835,7.835,0,0,1-4.752-1.486A3.963,3.963,0,0,1,2.79,11.839a3.945,3.945,0,0,1,1.835-3.1A7.339,7.339,0,0,1,7.891,7.362V5.655c-3.78.569-6.661,3.119-6.661,6.184,0,3.486,3.67,6.294,8.2,6.294a10.312,10.312,0,0,0,2.771-.367,1.725,1.725,0,0,0,1.45,1.138ZM9.67,6.5A13.3,13.3,0,0,0,12.4,14.573l.789.936.477.477a13.559,13.559,0,0,0,2.44,1.835h0v.257a2.2,2.2,0,0,0,2.2,2.2H31.157a2.2,2.2,0,0,0,2.2-2.2v-.257h0A13.285,13.285,0,0,0,39.8,6.444V5.16h.55a1.725,1.725,0,0,0-1.835-1.266H11.065A1.725,1.725,0,0,0,9.23,5.16h.477ZM28.459,27.068l1.211-4.477a.33.33,0,0,0-.33-.422H20.056a.349.349,0,0,0-.33.4l.991,4.477a.33.33,0,0,0,.33.275h7.083A.367.367,0,0,0,28.459,27.068Zm-7.945,7.45H28.79a.349.349,0,0,0,.33-.44l-.661-2.349a.349.349,0,0,0-.33-.239H20.992a.33.33,0,0,0-.33.257L20.129,34.1a.33.33,0,0,0,.385.422Zm9.743-4.734v-.477a.771.771,0,0,0-.771-.771H19.652a.771.771,0,0,0-.789.771v.477a.771.771,0,0,0,.789.771h9.835a.771.771,0,0,0,.771-.771Zm6.55,8.624H33.542a.33.33,0,0,1-.33-.33h0a2.349,2.349,0,0,0-2.349-2.349H18.294a2.349,2.349,0,0,0-2.349,2.349h0a.33.33,0,0,1-.349.33H12.349a2.092,2.092,0,0,0-2.11,2.018v.165a.349.349,0,0,0,.33.349h28a.349.349,0,0,0,.349-.349v-.165a2.11,2.11,0,0,0-2.11-2.11Z" transform="translate(23.58 25.16)" fill="url(#b)"/><g transform="translate(0 0)"><path d="M82.556,27.917,26.06,81.863c-3.541,3.376-11.651.605-18.129-6.184L-5.316,61.789C-11.794,55-14.2,46.78-10.656,43.44l56.5-53.946c3.541-3.376,11.651-.606,18.129,6.184L77.216,9.531C83.657,16.321,86.1,24.541,82.556,27.917Z" transform="translate(12.291 11.944)" fill="url(#c)"/></g></g></g></svg>