<svg xmlns="http://www.w3.org/2000/svg" width="30.177" height="30.072" viewBox="0 0 30.177 30.072">
  <g id="Group_8995" data-name="Group 8995" transform="translate(0.001)">
    <g id="Group_5327" data-name="Group 5327" transform="translate(-0.001 0)">
      <path id="Path_5991" data-name="Path 5991" d="M20.658,2.923h0a2.442,2.442,0,0,0,2.589.552h0a2.443,2.443,0,0,1,3.145,1.4h0A2.442,2.442,0,0,0,28.534,6.43h0a2.446,2.446,0,0,1,2.3,2.56h0a2.442,2.442,0,0,0,1.324,2.291h0a2.445,2.445,0,0,1,1.063,3.276h0a2.445,2.445,0,0,0,.276,2.632h0a2.573,2.573,0,0,1,.36,2.453,2.154,2.154,0,0,1-.718.973h0a2.442,2.442,0,0,0-.818,2.517h0A2.448,2.448,0,0,1,30.6,26.115h0a2.449,2.449,0,0,0-1.772,1.968h0a2.444,2.444,0,0,1-2.785,2.024h0a2.44,2.44,0,0,0-2.419,1.075h0a2.445,2.445,0,0,1-3.367.716h0a2.438,2.438,0,0,0-2.645,0h0a2.449,2.449,0,0,1-3.37-.716h0a2.434,2.434,0,0,0-2.416-1.075h0a2.449,2.449,0,0,1-2.787-2.024h0a2.446,2.446,0,0,0-1.768-1.968h0a2.448,2.448,0,0,1-1.725-2.982h0a2.444,2.444,0,0,0-.818-2.517h0a2.446,2.446,0,0,1-.36-3.426h0a2.437,2.437,0,0,0,.274-2.632h0a2.448,2.448,0,0,1,1.065-3.276h0A2.442,2.442,0,0,0,7.036,8.99h0a2.445,2.445,0,0,1,2.3-2.56h0s1.8-.66,2.142-1.556h0a2.442,2.442,0,0,1,3.145-1.4h0a2.445,2.445,0,0,0,2.589-.552h0A2.444,2.444,0,0,1,20.658,2.923Z" transform="translate(-3.833 -2.214)" fill="#346cb4"/>
      <ellipse id="Ellipse_681" data-name="Ellipse 681" cx="11.36" cy="11.36" rx="11.36" ry="11.36" transform="translate(3.742 3.662)" fill="#346cb4"/>
    </g>
  </g>
  <g id="Group_12366" data-name="Group 12366" transform="translate(-577.605 -494)">
    <g id="BULLSEYE_WITH_TARGET-01_4_" data-name="BULLSEYE WITH TARGET-01 (4)" transform="translate(581.301 497.49)">
      <g id="Group_8993" data-name="Group 8993" transform="translate(0 0)">
        <path id="Path_14477" data-name="Path 14477" d="M26.271,16.013A11.45,11.45,0,1,1,14.82,4.564,11.448,11.448,0,0,1,26.271,16.013Z" transform="translate(-3.372 -4.564)" fill="#fff" stroke="#346cb4" stroke-miterlimit="10" stroke-width="0.56"/>
        <g id="Group_8992" data-name="Group 8992" transform="translate(1.637 1.691)">
          <path id="Path_14478" data-name="Path 14478" d="M24.336,15.758a9.813,9.813,0,1,1-9.813-9.811A9.813,9.813,0,0,1,24.336,15.758Z" transform="translate(-4.711 -5.947)" fill="#346cb4"/>
          <ellipse id="Ellipse_878" data-name="Ellipse 878" cx="4.996" cy="4.996" rx="4.996" ry="4.996" transform="translate(4.788 4.791)" fill="#fff"/>
          <path id="Path_14479" data-name="Path 14479" d="M17.186,14.612a3.8,3.8,0,1,1-3.806-3.8A3.8,3.8,0,0,1,17.186,14.612Z" transform="translate(-3.629 -4.866)" fill="#ee8322"/>
        </g>
      </g>
      <g id="Group_8994" data-name="Group 8994" transform="translate(10.911 2.64)">
        <path id="Path_14480" data-name="Path 14480" d="M12.778,11.93a.475.475,0,0,1-.339-.141.48.48,0,0,1,0-.68l4.8-4.8a.481.481,0,0,1,.68.68l-4.8,4.8a.476.476,0,0,1-.34.141Z" transform="translate(-12.298 -2.482)" fill="#607d8a"/>
        <path id="Path_14481" data-name="Path 14481" d="M21.515,5.355h-1.6a.481.481,0,0,1-.48-.481v-1.6a.473.473,0,0,1,.141-.339L21.5,1.012a.48.48,0,0,1,.819.34V2.473h1.121a.48.48,0,0,1,.339.82L21.856,5.215a.485.485,0,0,1-.34.141Z" transform="translate(-14.469 -0.871)" fill="#488ecb"/>
        <path id="Path_14482" data-name="Path 14482" d="M17.262,6.342l-.019.018-4.8,4.8a.48.48,0,0,0,0,.679L17.4,6.88a.481.481,0,0,1-.141-.34Z" transform="translate(-12.298 -2.536)" fill="#556d79"/>
        <path id="Path_14483" data-name="Path 14483" d="M21.836.871a.481.481,0,0,0-.34.141L19.575,2.934a.479.479,0,0,0-.14.339v1.6a.476.476,0,0,0,.141.339l2.741-2.742V1.352a.481.481,0,0,0-.481-.481Z" transform="translate(-14.47 -0.871)" fill="#3080c3"/>
      </g>
    </g>
  </g>
</svg>
