<svg xmlns="http://www.w3.org/2000/svg" xmlns:xlink="http://www.w3.org/1999/xlink" width="45.308" height="35.972" viewBox="0 0 45.308 35.972"><defs><linearGradient id="a" x1="0.5" x2="0.5" y2="1" gradientUnits="objectBoundingBox"><stop offset="0" stop-color="#616468"/><stop offset="0.515" stop-color="#f8f8f8"/><stop offset="1" stop-color="#606367"/></linearGradient><clipPath id="c"><path d="M45.538,11.391c0,3.29-3.463,5.939-7.757,5.939a9.921,9.921,0,0,1-2.614-.346,1.593,1.593,0,0,1-1.506,1.074,1.541,1.541,0,0,1-.779-.208A13.852,13.852,0,0,0,35.565,15.6a.346.346,0,0,1,.294-.087,7.792,7.792,0,0,0,1.922.225,7.411,7.411,0,0,0,4.5-1.4,3.792,3.792,0,0,0,1.645-2.944,3.775,3.775,0,0,0-1.645-2.926A6.822,6.822,0,0,0,39.3,7.183V5.573C42.889,6.144,45.538,8.534,45.538,11.391ZM12.952,18.057a1.558,1.558,0,0,0,.831-.242,13.557,13.557,0,0,1-2.164-1.731l-.4-.5-.1-.139a8.224,8.224,0,0,1-2.2.294,7.393,7.393,0,0,1-4.484-1.4A3.74,3.74,0,0,1,2.7,11.391,3.723,3.723,0,0,1,4.433,8.464a6.926,6.926,0,0,1,3.082-1.3c0-.4,0-.8,0-1.212v-.4C3.948,6.092,1.23,8.5,1.23,11.391c0,3.29,3.463,5.939,7.74,5.939a9.731,9.731,0,0,0,2.614-.346,1.628,1.628,0,0,0,1.368,1.074ZM9.195,6.352a12.553,12.553,0,0,0,2.58,7.618l.745.883.45.45a12.8,12.8,0,0,0,2.3,1.731h0v.242a2.078,2.078,0,0,0,2.078,2.078H29.47a2.078,2.078,0,0,0,2.078-2.078v-.242h0A12.536,12.536,0,0,0,37.625,6.3V5.088h.519a1.628,1.628,0,0,0-1.731-1.195h-25.9A1.628,1.628,0,0,0,8.779,5.088h.45Zm17.73,19.41,1.143-4.225a.312.312,0,0,0-.312-.4H18.995a.329.329,0,0,0-.312.381l.935,4.225a.312.312,0,0,0,.312.26h6.683A.346.346,0,0,0,26.925,25.762Zm-7.5,7.03h7.809a.329.329,0,0,0,.312-.416l-.623-2.216a.329.329,0,0,0-.312-.225H19.878a.312.312,0,0,0-.312.242l-.5,2.216a.312.312,0,0,0,.364.4Zm9.194-4.467v-.45a.727.727,0,0,0-.727-.727H18.614a.727.727,0,0,0-.745.727v.45a.727.727,0,0,0,.745.727h9.281a.727.727,0,0,0,.727-.727ZM34.8,36.462H31.721a.312.312,0,0,1-.312-.312h0a2.216,2.216,0,0,0-2.216-2.216H17.333a2.216,2.216,0,0,0-2.216,2.216h0a.312.312,0,0,1-.329.312H11.723a1.974,1.974,0,0,0-1.991,1.9v.156a.329.329,0,0,0,.312.329H36.465a.329.329,0,0,0,.329-.329v-.156A1.991,1.991,0,0,0,34.8,36.376Z" transform="translate(-1.23 -3.885)" stroke="#707070" stroke-width="1" fill="url(#a)"/></clipPath></defs><g transform="translate(0.5 0.506)"><path d="M45.538,11.391c0,3.29-3.463,5.939-7.757,5.939a9.921,9.921,0,0,1-2.614-.346,1.593,1.593,0,0,1-1.506,1.074,1.541,1.541,0,0,1-.779-.208A13.852,13.852,0,0,0,35.565,15.6a.346.346,0,0,1,.294-.087,7.792,7.792,0,0,0,1.922.225,7.411,7.411,0,0,0,4.5-1.4,3.792,3.792,0,0,0,1.645-2.944,3.775,3.775,0,0,0-1.645-2.926A6.822,6.822,0,0,0,39.3,7.183V5.573C42.889,6.144,45.538,8.534,45.538,11.391ZM12.952,18.057a1.558,1.558,0,0,0,.831-.242,13.557,13.557,0,0,1-2.164-1.731l-.4-.5-.1-.139a8.224,8.224,0,0,1-2.2.294,7.393,7.393,0,0,1-4.484-1.4A3.74,3.74,0,0,1,2.7,11.391,3.723,3.723,0,0,1,4.433,8.464a6.926,6.926,0,0,1,3.082-1.3c0-.4,0-.8,0-1.212v-.4C3.948,6.092,1.23,8.5,1.23,11.391c0,3.29,3.463,5.939,7.74,5.939a9.731,9.731,0,0,0,2.614-.346,1.628,1.628,0,0,0,1.368,1.074ZM9.195,6.352a12.553,12.553,0,0,0,2.58,7.618l.745.883.45.45a12.8,12.8,0,0,0,2.3,1.731h0v.242a2.078,2.078,0,0,0,2.078,2.078H29.47a2.078,2.078,0,0,0,2.078-2.078v-.242h0A12.536,12.536,0,0,0,37.625,6.3V5.088h.519a1.628,1.628,0,0,0-1.731-1.195h-25.9A1.628,1.628,0,0,0,8.779,5.088h.45Zm17.73,19.41,1.143-4.225a.312.312,0,0,0-.312-.4H18.995a.329.329,0,0,0-.312.381l.935,4.225a.312.312,0,0,0,.312.26h6.683A.346.346,0,0,0,26.925,25.762Zm-7.5,7.03h7.809a.329.329,0,0,0,.312-.416l-.623-2.216a.329.329,0,0,0-.312-.225H19.878a.312.312,0,0,0-.312.242l-.5,2.216a.312.312,0,0,0,.364.4Zm9.194-4.467v-.45a.727.727,0,0,0-.727-.727H18.614a.727.727,0,0,0-.745.727v.45a.727.727,0,0,0,.745.727h9.281a.727.727,0,0,0,.727-.727ZM34.8,36.462H31.721a.312.312,0,0,1-.312-.312h0a2.216,2.216,0,0,0-2.216-2.216H17.333a2.216,2.216,0,0,0-2.216,2.216h0a.312.312,0,0,1-.329.312H11.723a1.974,1.974,0,0,0-1.991,1.9v.156a.329.329,0,0,0,.312.329H36.465a.329.329,0,0,0,.329-.329v-.156A1.991,1.991,0,0,0,34.8,36.376Z" transform="translate(-1.23 -3.885)" stroke="#707070" stroke-width="1" fill="url(#a)"/><g transform="translate(0 0)" clip-path="url(#c)"><path d="M77.21,25.67,23.9,76.576c-3.342,3.186-10.995.571-17.107-5.835L-5.71,57.633c-6.112-6.406-8.38-14.163-5.039-17.315L42.563-10.587c3.342-3.186,10.995-.571,17.107,5.835l12.5,13.073C78.249,14.728,80.552,22.485,77.21,25.67Z" transform="translate(-11.12 -15.464)" stroke="#707070" stroke-width="1" fill="url(#a)"/></g></g></svg>