<svg xmlns="http://www.w3.org/2000/svg" xmlns:xlink="http://www.w3.org/1999/xlink" width="44.737" height="43.149" viewBox="0 0 44.737 43.149"><defs><linearGradient id="a" x1="17.548" y1="433.394" x2="17.805" y2="413.414" gradientUnits="objectBoundingBox"><stop offset="0" stop-color="#787a7d"/><stop offset="0.485" stop-color="#e5e5e5"/><stop offset="1" stop-color="#787a7d"/></linearGradient><linearGradient id="b" x1="15.585" y1="534.194" x2="15.813" y2="509.523" xlink:href="#a"/><linearGradient id="c" x1="18.88" y1="398.732" x2="19.157" y2="380.366" xlink:href="#a"/><linearGradient id="d" x1="14.917" y1="610.379" x2="15.135" y2="582.147" xlink:href="#a"/><linearGradient id="e" x1="20.61" y1="371.653" x2="20.914" y2="354.524" xlink:href="#a"/><linearGradient id="f" x1="14.396" y1="714.436" x2="14.606" y2="681.506" xlink:href="#a"/><linearGradient id="g" x1="22.868" y1="350.881" x2="23.205" y2="334.739" xlink:href="#a"/><linearGradient id="h" x1="14.017" y1="852.699" x2="14.221" y2="813.473" xlink:href="#a"/><linearGradient id="i" x1="25.8" y1="333.782" x2="26.182" y2="318.441" xlink:href="#a"/><linearGradient id="j" x1="13.741" y1="1036.491" x2="13.941" y2="988.807" xlink:href="#a"/><linearGradient id="k" x1="29.69" y1="320.522" x2="30.131" y2="305.788" xlink:href="#a"/><linearGradient id="l" x1="13.57" y1="1263.623" x2="13.767" y2="1205.643" xlink:href="#a"/><linearGradient id="m" x1="35.152" y1="311.129" x2="35.674" y2="296.891" xlink:href="#a"/><linearGradient id="n" x1="13.51" y1="1426.014" x2="13.707" y2="1360.287" xlink:href="#a"/><linearGradient id="o" x1="42.341" y1="303.87" x2="42.971" y2="289.975" xlink:href="#a"/><linearGradient id="p" x1="13.546" y1="1367.085" x2="13.742" y2="1304.549" xlink:href="#a"/><linearGradient id="q" x1="51.471" y1="299.361" x2="52.239" y2="285.658" xlink:href="#a"/><linearGradient id="r" x1="13.652" y1="1156.986" x2="13.85" y2="1103.996" xlink:href="#a"/><linearGradient id="s" x1="61.011" y1="297.314" x2="61.923" y2="283.734" xlink:href="#a"/><linearGradient id="t" x1="13.887" y1="951.885" x2="14.089" y2="908.215" xlink:href="#a"/><linearGradient id="u" x1="63.253" y1="296.756" x2="64.198" y2="283.215" xlink:href="#a"/><linearGradient id="v" x1="14.205" y1="789.473" x2="14.411" y2="753.415" xlink:href="#a"/><linearGradient id="w" x1="56.54" y1="299.167" x2="57.383" y2="285.544" xlink:href="#a"/><linearGradient id="x" x1="14.673" y1="667.297" x2="14.887" y2="636.866" xlink:href="#a"/><linearGradient id="y" x1="46.556" y1="303.325" x2="47.249" y2="289.514" xlink:href="#a"/><linearGradient id="z" x1="15.246" y1="578.642" x2="15.468" y2="552.277" xlink:href="#a"/><linearGradient id="aa" x1="38.435" y1="310.349" x2="39.005" y2="296.255" xlink:href="#a"/><linearGradient id="ab" x1="16.029" y1="512.339" x2="16.263" y2="489.025" xlink:href="#a"/><linearGradient id="ac" x1="32.267" y1="319.969" x2="32.745" y2="305.46" xlink:href="#a"/><linearGradient id="ad" x1="17.005" y1="461.496" x2="17.253" y2="440.582" xlink:href="#a"/><linearGradient id="ae" x1="27.699" y1="332.164" x2="28.108" y2="317.127" xlink:href="#a"/><linearGradient id="af" x1="18.229" y1="422.981" x2="18.496" y2="403.808" xlink:href="#a"/><linearGradient id="ag" x1="24.338" y1="348.205" x2="24.696" y2="332.475" xlink:href="#a"/><linearGradient id="ah" x1="19.766" y1="392.772" x2="20.055" y2="375.016" xlink:href="#a"/><linearGradient id="ai" x1="21.749" y1="368.107" x2="22.067" y2="351.514" xlink:href="#a"/><linearGradient id="aj" x1="21.76" y1="368.128" x2="22.079" y2="351.535" xlink:href="#a"/><linearGradient id="ak" x1="19.788" y1="394.214" x2="20.077" y2="376.467" xlink:href="#a"/><linearGradient id="al" x1="24.338" y1="349.328" x2="24.696" y2="333.589" xlink:href="#a"/><linearGradient id="am" x1="18.266" y1="426.078" x2="18.532" y2="406.884" xlink:href="#a"/><linearGradient id="an" x1="27.747" y1="334.556" x2="28.155" y2="319.514" xlink:href="#a"/><linearGradient id="ao" x1="17.072" y1="466.652" x2="17.32" y2="445.68" xlink:href="#a"/><linearGradient id="ap" x1="32.397" y1="322.81" x2="32.875" y2="308.322" xlink:href="#a"/><linearGradient id="aq" x1="16.095" y1="519.697" x2="16.329" y2="496.381" xlink:href="#a"/><linearGradient id="ar" x1="38.598" y1="314.56" x2="39.169" y2="300.464" xlink:href="#a"/><linearGradient id="as" x1="15.343" y1="589.004" x2="15.565" y2="562.65" xlink:href="#a"/><linearGradient id="at" x1="46.809" y1="308.724" x2="47.502" y2="294.919" xlink:href="#a"/><linearGradient id="au" x1="14.772" y1="679.738" x2="14.986" y2="649.255" xlink:href="#a"/><linearGradient id="av" x1="56.896" y1="304.787" x2="57.738" y2="291.196" xlink:href="#a"/><linearGradient id="aw" x1="14.311" y1="807.274" x2="14.517" y2="771.263" xlink:href="#a"/><linearGradient id="ax" x1="64.09" y1="304.082" x2="65.04" y2="290.526" xlink:href="#a"/><linearGradient id="ay" x1="13.992" y1="977.237" x2="14.193" y2="933.651" xlink:href="#a"/><linearGradient id="az" x1="61.328" y1="304.99" x2="62.236" y2="291.428" xlink:href="#a"/><linearGradient id="ba" x1="13.77" y1="1191.452" x2="13.968" y2="1138.369" xlink:href="#a"/><linearGradient id="bb" x1="51.982" y1="307.887" x2="52.751" y2="294.198" xlink:href="#a"/><linearGradient id="bc" x1="13.666" y1="1413.097" x2="13.863" y2="1350.07" xlink:href="#a"/><linearGradient id="bd" x1="42.803" y1="313.132" x2="43.434" y2="299.219" xlink:href="#a"/><linearGradient id="be" x1="13.641" y1="1474.096" x2="13.837" y2="1408.607" xlink:href="#a"/><linearGradient id="bf" x1="35.567" y1="321.364" x2="36.09" y2="307.114" xlink:href="#a"/><linearGradient id="bg" x1="13.724" y1="1304.968" x2="13.922" y2="1246.729" xlink:href="#a"/><linearGradient id="bh" x1="30.07" y1="332.475" x2="30.51" y2="317.763" xlink:href="#a"/><linearGradient id="bi" x1="15.646" y1="569.139" x2="15.872" y2="543.909" xlink:href="#a"/><linearGradient id="bj" x1="17.538" y1="433.343" x2="17.795" y2="413.382" xlink:href="#a"/><linearGradient id="bk" x1="15.571" y1="534.148" x2="15.798" y2="509.476" xlink:href="#a"/><linearGradient id="bl" x1="18.877" y1="398.672" x2="19.155" y2="380.315" xlink:href="#a"/><linearGradient id="bm" x1="14.901" y1="610.268" x2="15.119" y2="582.065" xlink:href="#a"/><linearGradient id="bn" x1="20.616" y1="371.582" x2="20.92" y2="354.458" xlink:href="#a"/><linearGradient id="bo" x1="14.402" y1="714.292" x2="14.612" y2="681.37" xlink:href="#a"/><linearGradient id="bp" x1="22.854" y1="350.782" x2="23.191" y2="334.665" xlink:href="#a"/><linearGradient id="bq" x1="14.016" y1="852.608" x2="14.22" y2="813.255" xlink:href="#a"/><linearGradient id="br" x1="25.766" y1="333.696" x2="26.147" y2="318.35" xlink:href="#a"/><linearGradient id="bs" x1="13.735" y1="1036.264" x2="13.935" y2="988.5" xlink:href="#a"/><linearGradient id="bt" x1="29.73" y1="320.416" x2="30.172" y2="305.692" xlink:href="#a"/><linearGradient id="bu" x1="13.58" y1="1263.219" x2="13.777" y2="1205.214" xlink:href="#a"/><linearGradient id="bv" x1="35.204" y1="311.038" x2="35.727" y2="296.778" xlink:href="#a"/><linearGradient id="bw" x1="13.514" y1="1425.239" x2="13.71" y2="1359.781" xlink:href="#a"/><linearGradient id="bx" x1="42.349" y1="303.759" x2="42.98" y2="289.853" xlink:href="#a"/><linearGradient id="by" x1="13.548" y1="1366.811" x2="13.745" y2="1303.9" xlink:href="#a"/><linearGradient id="bz" x1="51.631" y1="299.227" x2="52.402" y2="285.535" xlink:href="#a"/><linearGradient id="ca" x1="13.662" y1="1156.453" x2="13.86" y2="1103.468" xlink:href="#a"/><linearGradient id="cb" x1="60.812" y1="297.187" x2="61.721" y2="283.598" xlink:href="#a"/><linearGradient id="cc" x1="13.889" y1="951.316" x2="14.091" y2="907.774" xlink:href="#a"/><linearGradient id="cd" x1="63.262" y1="296.611" x2="64.207" y2="283.075" xlink:href="#a"/><linearGradient id="ce" x1="14.222" y1="788.561" x2="14.428" y2="752.473" xlink:href="#a"/><linearGradient id="cf" x1="56.432" y1="299.014" x2="57.273" y2="285.395" xlink:href="#a"/><linearGradient id="cg" x1="14.663" y1="666.907" x2="14.876" y2="636.509" xlink:href="#a"/><linearGradient id="ch" x1="46.59" y1="303.162" x2="47.283" y2="289.36" xlink:href="#a"/><linearGradient id="ci" x1="15.256" y1="578.316" x2="15.478" y2="551.943" xlink:href="#a"/><linearGradient id="cj" x1="38.457" y1="310.179" x2="39.028" y2="296.093" xlink:href="#a"/><linearGradient id="ck" x1="16.03" y1="512.01" x2="16.263" y2="488.745" xlink:href="#a"/><linearGradient id="cl" x1="32.285" y1="319.784" x2="32.763" y2="305.293" xlink:href="#a"/><linearGradient id="cm" x1="17.018" y1="461.374" x2="17.266" y2="440.427" xlink:href="#a"/><linearGradient id="cn" x1="27.69" y1="331.985" x2="28.098" y2="316.941" xlink:href="#a"/><linearGradient id="co" x1="18.232" y1="422.717" x2="18.499" y2="403.559" xlink:href="#a"/><linearGradient id="cp" x1="24.351" y1="348.017" x2="24.709" y2="332.282" xlink:href="#a"/><linearGradient id="cq" x1="19.779" y1="392.539" x2="20.069" y2="374.771" xlink:href="#a"/><linearGradient id="cr" x1="21.789" y1="367.915" x2="22.109" y2="351.298" xlink:href="#a"/><linearGradient id="cs" x1="21.776" y1="367.905" x2="22.095" y2="351.311" xlink:href="#a"/><linearGradient id="ct" x1="19.791" y1="394.002" x2="20.08" y2="376.251" xlink:href="#a"/><linearGradient id="cu" x1="24.368" y1="349.121" x2="24.726" y2="333.378" xlink:href="#a"/><linearGradient id="cv" x1="18.269" y1="425.837" x2="18.536" y2="406.678" xlink:href="#a"/><linearGradient id="cw" x1="27.754" y1="334.359" x2="28.163" y2="319.315" xlink:href="#a"/><linearGradient id="cx" x1="17.08" y1="466.408" x2="17.329" y2="445.448" xlink:href="#a"/><linearGradient id="cy" x1="32.367" y1="322.627" x2="32.845" y2="308.136" xlink:href="#a"/><linearGradient id="cz" x1="16.096" y1="519.43" x2="16.33" y2="496.133" xlink:href="#a"/><linearGradient id="da" x1="38.596" y1="314.384" x2="39.167" y2="300.296" xlink:href="#a"/><linearGradient id="db" x1="15.346" y1="588.736" x2="15.568" y2="562.335" xlink:href="#a"/><linearGradient id="dc" x1="46.818" y1="308.559" x2="47.51" y2="294.761" xlink:href="#a"/><linearGradient id="dd" x1="14.765" y1="679.413" x2="14.978" y2="649.007" xlink:href="#a"/><linearGradient id="de" x1="56.957" y1="304.639" x2="57.802" y2="291.028" xlink:href="#a"/><linearGradient id="df" x1="14.319" y1="805.845" x2="14.525" y2="769.88" xlink:href="#a"/><linearGradient id="dg" x1="64.101" y1="303.937" x2="65.051" y2="290.398" xlink:href="#a"/><linearGradient id="dh" x1="13.983" y1="976.867" x2="14.185" y2="933.226" xlink:href="#a"/><linearGradient id="di" x1="61.251" y1="304.862" x2="62.159" y2="291.275" xlink:href="#a"/><linearGradient id="dj" x1="13.772" y1="1191.049" x2="13.97" y2="1137.838" xlink:href="#a"/><linearGradient id="dk" x1="52.031" y1="307.766" x2="52.801" y2="294.073" xlink:href="#a"/><linearGradient id="dl" x1="13.682" y1="1412.626" x2="13.878" y2="1349.808" xlink:href="#a"/><linearGradient id="dm" x1="42.782" y1="313.022" x2="43.413" y2="299.113" xlink:href="#a"/><linearGradient id="dn" x1="13.657" y1="1473.715" x2="13.854" y2="1407.974" xlink:href="#a"/><linearGradient id="do" x1="35.51" y1="321.266" x2="36.032" y2="307.017" xlink:href="#a"/><linearGradient id="dp" x1="13.739" y1="1307.47" x2="13.936" y2="1249.57" xlink:href="#a"/><linearGradient id="dq" x1="30.119" y1="332.39" x2="30.56" y2="317.663" xlink:href="#a"/><linearGradient id="dr" x1="15.652" y1="569.022" x2="15.878" y2="543.73" xlink:href="#a"/></defs><g transform="translate(0 0.001)"><g transform="translate(0 -0.001)"><g transform="translate(23.804 0)"><path d="M23.033,30.634c-.7.614-1.371,1-1.495.848s.337-.763,1.034-1.375,1.371-1,1.495-.85S23.734,30.02,23.033,30.634Z" transform="translate(-21.517 9.861)" fill="url(#a)"/><path d="M23.155,31c-.8-.484-1.524-.745-1.622-.583s.461.691,1.258,1.175,1.52.743,1.622.581S23.949,31.482,23.155,31Z" transform="translate(-21.514 10.93)" fill="url(#b)"/><path d="M23.874,30.483c-.643.678-1.278,1.111-1.417.983s.273-.79.916-1.464,1.278-1.111,1.415-.98S24.517,29.809,23.874,30.483Z" transform="translate(-20.663 9.65)" fill="url(#c)"/><path d="M24.115,30.736c-.836-.412-1.58-.606-1.667-.436s.525.647,1.357,1.063,1.582.606,1.667.436S24.949,31.153,24.115,30.736Z" transform="translate(-20.653 10.81)" fill="url(#d)"/><path d="M24.693,30.253c-.583.73-1.173,1.222-1.33,1.1s.2-.809.78-1.535,1.179-1.222,1.33-1.1S25.276,29.527,24.693,30.253Z" transform="translate(-19.822 9.369)" fill="url(#e)"/><path d="M25.049,30.4c-.869-.339-1.63-.467-1.7-.285s.577.6,1.444.933,1.632.47,1.7.287S25.918,30.736,25.049,30.4Z" transform="translate(-19.807 10.614)" fill="url(#f)"/><path d="M25.477,29.943c-.519.774-1.067,1.32-1.225,1.21s.126-.821.643-1.6,1.067-1.32,1.229-1.208S26,29.171,25.477,29.943Z" transform="translate(-19 9.028)" fill="url(#g)"/><path d="M25.949,29.985c-.9-.265-1.661-.325-1.717-.143s.623.548,1.516.813,1.667.321,1.721.139S26.841,30.242,25.949,29.985Z" transform="translate(-18.98 10.34)" fill="url(#h)"/><path d="M26.227,29.56c-.445.817-.945,1.406-1.115,1.313s.056-.831.5-1.647.945-1.407,1.119-1.313S26.678,28.745,26.227,29.56Z" transform="translate(-18.206 8.623)" fill="url(#i)"/><path d="M26.81,29.5c-.916-.184-1.686-.178-1.725.012s.674.494,1.584.676,1.684.178,1.725-.012S27.72,29.678,26.81,29.5Z" transform="translate(-18.179 9.988)" fill="url(#j)"/><path d="M26.935,29.1c-.37.854-.817,1.485-1,1.407s-.017-.832.36-1.682.821-1.487,1-1.411S27.312,28.249,26.935,29.1Z" transform="translate(-17.447 8.161)" fill="url(#k)"/><path d="M27.618,28.949c-.925-.1-1.69-.031-1.713.161s.712.434,1.638.53,1.694.035,1.717-.163S28.549,29.051,27.618,28.949Z" transform="translate(-17.411 9.558)" fill="url(#l)"/><path d="M27.6,28.569c-.294.885-.687,1.551-.869,1.489s-.091-.831.207-1.711.685-1.551.869-1.483S27.9,27.688,27.6,28.569Z" transform="translate(-16.725 7.646)" fill="url(#m)"/><ellipse cx="1.686" cy="0.348" rx="1.686" ry="0.348" transform="translate(10.005 37.394)" fill="url(#n)"/><path d="M28.218,27.976c-.219.908-.55,1.6-.74,1.558s-.163-.817.06-1.723.552-1.6.738-1.557S28.439,27.072,28.218,27.976Z" transform="translate(-16.054 7.079)" fill="url(#o)"/><path d="M29.079,27.719c-.929.06-1.675.265-1.659.457s.774.3,1.707.238,1.669-.265,1.657-.453S30.01,27.661,29.079,27.719Z" transform="translate(-15.992 8.436)" fill="url(#p)"/><path d="M28.786,27.321c-.139.922-.408,1.646-.6,1.615s-.23-.8-.091-1.723.41-1.644.6-1.613S28.929,26.4,28.786,27.321Z" transform="translate(-15.441 6.466)" fill="url(#q)"/><path d="M29.716,27.051c-.921.141-1.648.412-1.615.6s.8.23,1.723.091,1.644-.408,1.615-.6S30.636,26.912,29.716,27.051Z" transform="translate(-15.355 7.748)" fill="url(#r)"/><path d="M29.3,26.606c-.056.929-.261,1.673-.451,1.659s-.3-.774-.24-1.708.265-1.671.449-1.657C29.26,24.912,29.365,25.676,29.3,26.606Z" transform="translate(-14.894 5.813)" fill="url(#s)"/><path d="M30.283,26.347c-.9.219-1.6.548-1.556.738s.815.161,1.723-.056,1.6-.552,1.555-.741S31.187,26.127,30.283,26.347Z" transform="translate(-14.772 6.994)" fill="url(#t)"/><ellipse cx="0.35" cy="1.688" rx="0.35" ry="1.688" transform="translate(14.657 29.28)" fill="url(#u)"/><path d="M30.78,25.6c-.885.3-1.551.687-1.491.873s.829.087,1.713-.211,1.547-.685,1.487-.869S31.66,25.3,30.78,25.6Z" transform="translate(-14.247 6.185)" fill="url(#v)"/><path d="M30.225,25.031c.1.925.033,1.694-.159,1.713s-.434-.711-.532-1.638-.031-1.694.163-1.715S30.126,24.1,30.225,25.031Z" transform="translate(-14.06 4.4)" fill="url(#w)"/><path d="M31.192,24.814c-.85.374-1.483.825-1.4,1s.831.019,1.682-.358,1.487-.823,1.407-1S32.046,24.44,31.192,24.814Z" transform="translate(-13.782 5.332)" fill="url(#x)"/><path d="M30.614,24.179c.186.916.18,1.682-.015,1.725s-.484-.678-.67-1.587-.18-1.682.012-1.723S30.432,23.267,30.614,24.179Z" transform="translate(-13.771 3.653)" fill="url(#y)"/><path d="M31.53,24c-.817.447-1.4.947-1.316,1.117s.836-.056,1.653-.507,1.407-.943,1.313-1.113S32.348,23.548,31.53,24Z" transform="translate(-13.386 4.443)" fill="url(#z)"/><path d="M30.938,23.3c.257.9.321,1.661.134,1.719s-.546-.627-.805-1.52-.327-1.663-.137-1.717S30.677,22.4,30.938,23.3Z" transform="translate(-13.56 2.887)" fill="url(#aa)"/><path d="M31.78,23.147c-.77.517-1.316,1.065-1.21,1.227s.825-.128,1.6-.647,1.318-1.067,1.212-1.227S32.557,22.628,31.78,23.147Z" transform="translate(-13.056 3.525)" fill="url(#ab)"/><path d="M31.185,22.387c.341.867.469,1.628.288,1.7s-.6-.577-.935-1.442-.468-1.63-.29-1.7S30.85,21.518,31.185,22.387Z" transform="translate(-13.421 2.105)" fill="url(#ac)"/><path d="M31.949,22.272c-.726.587-1.218,1.175-1.1,1.33s.807-.2,1.533-.78,1.222-1.175,1.1-1.33S32.675,21.689,31.949,22.272Z" transform="translate(-12.797 2.589)" fill="url(#ad)"/><path d="M31.358,21.459c.416.834.608,1.58.439,1.667s-.65-.525-1.063-1.357-.606-1.582-.436-1.667S30.949,20.623,31.358,21.459Z" transform="translate(-13.356 1.314)" fill="url(#ae)"/><path d="M32.032,21.383c-.676.643-1.111,1.278-.978,1.417s.782-.271,1.46-.916,1.111-1.278.98-1.417S32.7,20.741,32.032,21.383Z" transform="translate(-12.613 1.64)" fill="url(#af)"/><path d="M31.454,20.518c.484.8.745,1.52.579,1.622s-.689-.461-1.171-1.256-.743-1.524-.581-1.624S30.97,19.721,31.454,20.518Z" transform="translate(-13.361 0.523)" fill="url(#ag)"/><path d="M32.028,20.48c-.612.7-1,1.371-.85,1.5s.763-.337,1.376-1.036,1-1.373.85-1.5S32.639,19.783,32.028,20.48Z" transform="translate(-12.504 0.686)" fill="url(#ah)"/><path d="M31.468,19.574c.552.753.877,1.452.718,1.568s-.726-.4-1.282-1.154-.869-1.452-.718-1.566S30.92,18.823,31.468,19.574Z" transform="translate(-13.438 -0.266)" fill="url(#ai)"/><path d="M31.937,19.574c-.552.753-.869,1.452-.718,1.568s.73-.4,1.282-1.154.873-1.452.718-1.566S32.489,18.823,31.937,19.574Z" transform="translate(-12.472 -0.266)" fill="url(#aj)"/><path d="M31.4,18.63c.616.7,1,1.369.85,1.5s-.763-.337-1.376-1.036-1-1.369-.85-1.5S30.788,17.931,31.4,18.63Z" transform="translate(-13.583 -1.045)" fill="url(#ak)"/><path d="M31.762,18.669c-.484.8-.741,1.522-.579,1.624s.689-.467,1.173-1.256.747-1.524.581-1.626S32.246,17.873,31.762,18.669Z" transform="translate(-12.515 -1.208)" fill="url(#al)"/><path d="M31.25,17.7c.678.647,1.115,1.278.98,1.419s-.784-.275-1.46-.918-1.111-1.276-.98-1.415S30.578,17.053,31.25,17.7Z" transform="translate(-13.796 -1.809)" fill="url(#am)"/><path d="M31.5,17.775c-.412.836-.606,1.578-.436,1.667s.647-.525,1.063-1.357.606-1.58.436-1.667S31.917,16.941,31.5,17.775Z" transform="translate(-12.635 -2.134)" fill="url(#an)"/><path d="M31.022,16.783c.726.581,1.218,1.173,1.1,1.33s-.805-.2-1.533-.786-1.22-1.173-1.1-1.324S30.294,16.2,31.022,16.783Z" transform="translate(-14.075 -2.549)" fill="url(#ao)"/><path d="M31.163,16.9c-.337.867-.465,1.626-.285,1.7s.6-.579.939-1.448.465-1.63.285-1.7S31.5,16.027,31.163,16.9Z" transform="translate(-12.832 -3.036)" fill="url(#ap)"/><path d="M30.712,15.891c.774.519,1.32,1.067,1.214,1.225s-.825-.124-1.6-.643-1.32-1.067-1.21-1.229S29.936,15.372,30.712,15.891Z" transform="translate(-14.417 -3.266)" fill="url(#aq)"/><path d="M30.749,16.04c-.261.9-.323,1.659-.135,1.717s.546-.623.809-1.52.321-1.663.136-1.719S31.01,15.146,30.749,16.04Z" transform="translate(-13.105 -3.907)" fill="url(#ar)"/><path d="M30.329,15.031c.817.447,1.407.943,1.313,1.113s-.832-.054-1.649-.5-1.407-.945-1.313-1.115S29.51,14.582,30.329,15.031Z" transform="translate(-14.823 -3.95)" fill="url(#as)"/><path d="M30.264,15.215c-.186.912-.178,1.682.012,1.721s.488-.674.676-1.584.178-1.686-.012-1.725S30.446,14.3,30.264,15.215Z" transform="translate(-13.457 -4.739)" fill="url(#at)"/><path d="M29.866,14.205c.856.378,1.485.823,1.409,1s-.832.015-1.686-.36-1.483-.821-1.4-1S29.016,13.833,29.866,14.205Z" transform="translate(-15.282 -4.598)" fill="url(#au)"/><path d="M29.716,14.423c-.1.927-.031,1.69.163,1.717s.432-.714.529-1.642.035-1.694-.161-1.717S29.818,13.5,29.716,14.423Z" transform="translate(-13.888 -5.53)" fill="url(#av)"/><path d="M29.338,13.431c.885.3,1.551.685,1.491.869s-.829.091-1.711-.207-1.549-.687-1.489-.871S28.457,13.133,29.338,13.431Z" transform="translate(-15.8 -5.205)" fill="url(#aw)"/><ellipse cx="0.348" cy="1.686" rx="0.348" ry="1.686" transform="translate(14.717 5.724)" fill="url(#ax)"/><path d="M28.744,12.7c.9.223,1.6.552,1.558.741s-.817.163-1.721-.058-1.6-.55-1.56-.738S27.84,12.487,28.744,12.7Z" transform="translate(-16.368 -5.771)" fill="url(#ay)"/><path d="M28.487,12.969c.06.929.265,1.673.457,1.659s.3-.774.24-1.706-.267-1.673-.455-1.661S28.429,12.037,28.487,12.969Z" transform="translate(-15.009 -6.953)" fill="url(#az)"/><path d="M28.088,12.05c.921.141,1.646.41,1.617.6s-.8.228-1.721.087-1.647-.408-1.618-.6S27.167,11.91,28.088,12.05Z" transform="translate(-16.98 -6.293)" fill="url(#ba)"/><path d="M27.82,12.32c.139.92.408,1.642.6,1.615s.228-.8.089-1.725-.41-1.646-.6-1.613S27.677,11.4,27.82,12.32Z" transform="translate(-15.697 -7.576)" fill="url(#bb)"/><path d="M27.376,11.468c.929.056,1.671.263,1.659.453s-.774.3-1.709.238-1.671-.261-1.659-.453S26.444,11.406,27.376,11.468Z" transform="translate(-17.634 -6.776)" fill="url(#bc)"/><path d="M27.115,11.724c.219.906.548,1.6.738,1.56s.159-.819-.06-1.725-.55-1.6-.738-1.558S26.892,10.82,27.115,11.724Z" transform="translate(-16.452 -8.134)" fill="url(#bd)"/><ellipse cx="1.688" cy="0.348" rx="1.688" ry="0.348" transform="translate(6.605 3.749)" fill="url(#be)"/><path d="M26.37,11.191c.294.885.685,1.551.869,1.489s.087-.831-.209-1.711-.689-1.547-.871-1.487S26.07,10.31,26.37,11.191Z" transform="translate(-17.26 -8.621)" fill="url(#bf)"/><path d="M25.792,10.575c.933-.1,1.7-.033,1.721.159s-.71.434-1.642.534-1.694.031-1.713-.163S24.873,10.676,25.792,10.575Z" transform="translate(-19.046 -7.639)" fill="url(#bg)"/><path d="M25.583,10.728c.374.85.821,1.481,1,1.4s.015-.831-.36-1.684-.821-1.483-1-1.4S25.209,9.875,25.583,10.728Z" transform="translate(-18.114 -9.036)" fill="url(#bh)"/><path d="M25.17,10.653c.8.47,1.535.718,1.63.552s-.472-.685-1.278-1.154-1.533-.72-1.63-.552S24.367,10.181,25.17,10.653Z" transform="translate(-19.305 -8.651)" fill="url(#bi)"/></g><g transform="translate(0 0)"><path d="M19.761,30.634c.7.614,1.369,1,1.5.848s-.339-.763-1.036-1.375-1.369-1-1.5-.85S19.062,30.02,19.761,30.634Z" transform="translate(-0.346 9.861)" fill="url(#bj)"/><path d="M19.8,31c.8-.484,1.522-.745,1.624-.583s-.465.691-1.262,1.175-1.52.743-1.622.581S19,31.482,19.8,31Z" transform="translate(-0.509 10.93)" fill="url(#bk)"/><path d="M18.831,30.483c.643.678,1.278,1.111,1.417.983s-.275-.79-.918-1.464-1.278-1.111-1.415-.98S18.188,29.809,18.831,30.483Z" transform="translate(-1.11 9.65)" fill="url(#bl)"/><path d="M18.9,30.736c.838-.412,1.582-.606,1.671-.436s-.525.647-1.357,1.063-1.584.606-1.671.436S18.071,31.153,18.9,30.736Z" transform="translate(-1.437 10.81)" fill="url(#bm)"/><path d="M17.913,30.253c.583.73,1.175,1.222,1.328,1.1s-.2-.809-.778-1.535-1.175-1.222-1.332-1.1S17.33,29.527,17.913,30.253Z" transform="translate(-1.851 9.369)" fill="url(#bn)"/><path d="M18.027,30.4c.865-.339,1.626-.467,1.7-.285s-.579.6-1.444.933-1.63.47-1.7.287S17.158,30.736,18.027,30.4Z" transform="translate(-2.337 10.614)" fill="url(#bo)"/><path d="M17.022,29.943c.519.774,1.067,1.32,1.225,1.21s-.124-.821-.643-1.6-1.067-1.32-1.229-1.208S16.5,29.171,17.022,29.943Z" transform="translate(-2.567 9.028)" fill="url(#bp)"/><path d="M17.17,29.985c.894-.265,1.663-.325,1.717-.143s-.623.548-1.52.813-1.661.321-1.717.139S16.276,30.242,17.17,29.985Z" transform="translate(-3.207 10.34)" fill="url(#bq)"/><path d="M16.16,29.56c.449.817.945,1.406,1.119,1.313s-.056-.831-.5-1.647-.949-1.407-1.121-1.313S15.713,28.745,16.16,29.56Z" transform="translate(-3.252 8.623)" fill="url(#br)"/><path d="M16.343,29.5c.916-.184,1.686-.178,1.725.012s-.674.494-1.587.676-1.682.178-1.723-.012S15.429,29.678,16.343,29.5Z" transform="translate(-4.041 9.988)" fill="url(#bs)"/><path d="M15.338,29.1c.376.854.821,1.485,1,1.407s.017-.832-.362-1.682-.817-1.487-1-1.411S14.966,28.249,15.338,29.1Z" transform="translate(-3.899 8.161)" fill="url(#bt)"/><path d="M15.552,28.949c.927-.1,1.694-.031,1.715.161s-.712.434-1.64.53-1.694.035-1.713-.163S14.629,29.051,15.552,28.949Z" transform="translate(-4.83 9.558)" fill="url(#bu)"/><path d="M14.563,28.569c.3.885.685,1.551.869,1.489s.087-.831-.209-1.711-.685-1.551-.869-1.483S14.263,27.688,14.563,28.569Z" transform="translate(-4.506 7.646)" fill="url(#bv)"/><ellipse cx="1.686" cy="0.348" rx="1.686" ry="0.348" transform="translate(7.553 37.394)" fill="url(#bw)"/><path d="M13.839,27.976c.219.908.548,1.6.738,1.558s.163-.817-.058-1.723-.55-1.6-.738-1.557S13.621,27.072,13.839,27.976Z" transform="translate(-5.072 7.079)" fill="url(#bx)"/><path d="M14.1,27.719c.927.06,1.673.265,1.659.457s-.774.3-1.706.238-1.673-.265-1.659-.453S13.168,27.661,14.1,27.719Z" transform="translate(-6.254 8.436)" fill="url(#by)"/><path d="M13.182,27.321c.139.922.408,1.646.6,1.615s.23-.8.095-1.723-.412-1.644-.6-1.613S13.041,26.4,13.182,27.321Z" transform="translate(-5.594 6.466)" fill="url(#bz)"/><path d="M13.447,27.051c.923.141,1.647.412,1.615.6s-.8.23-1.717.091-1.646-.408-1.618-.6S12.53,26.912,13.447,27.051Z" transform="translate(-6.878 7.748)" fill="url(#ca)"/><path d="M12.6,26.606c.058.929.265,1.673.455,1.659s.3-.774.242-1.708-.267-1.671-.455-1.657S12.539,25.676,12.6,26.606Z" transform="translate(-6.077 5.813)" fill="url(#cb)"/><path d="M12.855,26.347c.9.219,1.6.548,1.555.738s-.813.161-1.721-.056-1.6-.552-1.556-.741S11.949,26.127,12.855,26.347Z" transform="translate(-7.435 6.994)" fill="url(#cc)"/><ellipse cx="0.35" cy="1.688" rx="0.35" ry="1.688" transform="translate(5.577 29.28)" fill="url(#cd)"/><path d="M12.322,25.6c.885.3,1.547.687,1.487.873s-.829.087-1.713-.211-1.547-.685-1.483-.869S11.442,25.3,12.322,25.6Z" transform="translate(-7.923 6.184)" fill="url(#ce)"/><path d="M11.7,25.031c-.1.925-.031,1.694.163,1.713s.432-.711.532-1.638.031-1.694-.163-1.715S11.8,24.1,11.7,25.031Z" transform="translate(-6.941 4.4)" fill="url(#cf)"/><path d="M11.857,24.814c.852.374,1.483.825,1.407,1s-.836.019-1.686-.358-1.485-.823-1.407-1S11.007,24.44,11.857,24.814Z" transform="translate(-8.338 5.332)" fill="url(#cg)"/><path d="M11.4,24.179c-.186.916-.182,1.682.012,1.725s.488-.678.674-1.587.178-1.682-.014-1.723S11.582,23.267,11.4,24.179Z" transform="translate(-7.31 3.653)" fill="url(#ch)"/><path d="M11.461,24c.821.447,1.407.947,1.316,1.117s-.832-.056-1.649-.507-1.409-.943-1.314-1.113S10.644,23.548,11.461,24Z" transform="translate(-8.676 4.443)" fill="url(#ci)"/><path d="M11.175,23.3c-.261.9-.321,1.661-.136,1.719s.548-.627.809-1.52.321-1.663.136-1.717S11.434,22.4,11.175,23.3Z" transform="translate(-7.621 2.887)" fill="url(#cj)"/><path d="M11.141,23.147c.771.517,1.316,1.065,1.21,1.227s-.825-.128-1.6-.647S9.433,22.661,9.542,22.5,10.362,22.628,11.141,23.147Z" transform="translate(-8.934 3.525)" fill="url(#ck)"/><path d="M11.036,22.387c-.341.867-.468,1.628-.287,1.7s.6-.577.933-1.442.468-1.63.288-1.7S11.372,21.518,11.036,22.387Z" transform="translate(-7.869 2.105)" fill="url(#cl)"/><path d="M10.892,22.272c.726.587,1.218,1.175,1.1,1.33s-.805-.2-1.535-.78-1.218-1.175-1.1-1.33S10.166,21.689,10.892,22.272Z" transform="translate(-9.112 2.589)" fill="url(#cm)"/><path d="M10.976,21.459c-.416.834-.608,1.58-.439,1.667s.65-.525,1.063-1.357.608-1.582.436-1.667S11.388,20.623,10.976,21.459Z" transform="translate(-8.048 1.314)" fill="url(#cn)"/><path d="M10.719,21.383c.678.643,1.111,1.278.98,1.417s-.786-.271-1.464-.916-1.109-1.278-.976-1.417S10.049,20.741,10.719,21.383Z" transform="translate(-9.208 1.64)" fill="url(#co)"/><path d="M10.991,20.518c-.482.8-.743,1.52-.579,1.622s.693-.461,1.173-1.256.741-1.524.579-1.624S11.475,19.721,10.991,20.518Z" transform="translate(-8.153 0.523)" fill="url(#cp)"/><path d="M10.63,20.48c.612.7,1,1.371.848,1.5s-.763-.337-1.376-1.036-1-1.373-.848-1.5S10.014,19.783,10.63,20.48Z" transform="translate(-9.221 0.686)" fill="url(#cq)"/><path d="M11.088,19.574c-.556.753-.877,1.452-.72,1.568s.728-.4,1.28-1.154.869-1.452.716-1.566S11.632,18.823,11.088,19.574Z" transform="translate(-8.185 -0.266)" fill="url(#cr)"/><path d="M10.615,19.574c.552.753.871,1.452.718,1.568s-.728-.4-1.28-1.154-.873-1.452-.718-1.566S10.064,18.823,10.615,19.574Z" transform="translate(-9.151 -0.266)" fill="url(#cs)"/><path d="M11.258,18.63c-.616.7-1,1.369-.854,1.5s.765-.337,1.376-1.036,1-1.369.85-1.5S11.87,17.931,11.258,18.63Z" transform="translate(-8.144 -1.045)" fill="url(#ct)"/><path d="M10.681,18.669c.488.8.745,1.522.579,1.624s-.687-.467-1.171-1.256-.745-1.524-.579-1.626S10.2,17.873,10.681,18.669Z" transform="translate(-8.999 -1.208)" fill="url(#cu)"/><path d="M11.5,17.7c-.678.647-1.115,1.278-.98,1.419s.786-.275,1.46-.918,1.111-1.276.98-1.415S12.175,17.053,11.5,17.7Z" transform="translate(-8.025 -1.809)" fill="url(#cv)"/><path d="M10.831,17.775c.412.836.606,1.578.436,1.667s-.647-.525-1.063-1.357-.606-1.58-.436-1.667S10.418,16.941,10.831,17.775Z" transform="translate(-8.768 -2.134)" fill="url(#cw)"/><path d="M11.817,16.783c-.726.581-1.218,1.173-1.094,1.33s.8-.2,1.533-.786,1.22-1.173,1.1-1.324S12.547,16.2,11.817,16.783Z" transform="translate(-7.834 -2.549)" fill="url(#cx)"/><path d="M11.056,16.9c.339.867.467,1.626.288,1.7s-.6-.579-.941-1.448-.465-1.63-.287-1.7S10.719,16.027,11.056,16.9Z" transform="translate(-8.458 -3.036)" fill="url(#cy)"/><path d="M12.21,15.891c-.772.519-1.322,1.067-1.214,1.225s.825-.124,1.6-.643,1.32-1.067,1.21-1.229S12.983,15.372,12.21,15.891Z" transform="translate(-7.573 -3.266)" fill="url(#cz)"/><path d="M11.36,16.04c.265.9.327,1.659.139,1.717s-.544-.623-.809-1.52-.321-1.663-.136-1.719S11.1,15.146,11.36,16.04Z" transform="translate(-8.075 -3.907)" fill="url(#da)"/><path d="M12.662,15.031c-.817.447-1.407.943-1.313,1.113s.832-.054,1.649-.5,1.407-.945,1.313-1.115S13.479,14.582,12.662,15.031Z" transform="translate(-7.239 -3.95)" fill="url(#db)"/><path d="M11.749,15.215c.186.912.178,1.682-.012,1.721s-.49-.674-.674-1.584-.178-1.686.008-1.725S11.567,14.3,11.749,15.215Z" transform="translate(-7.624 -4.739)" fill="url(#dc)"/><path d="M13.184,14.205c-.854.378-1.487.823-1.409,1s.834.015,1.686-.36,1.485-.821,1.405-1S14.034,13.833,13.184,14.205Z" transform="translate(-6.837 -4.598)" fill="url(#dd)"/><path d="M12.214,14.423c.1.927.031,1.69-.163,1.717s-.43-.714-.529-1.642-.031-1.694.159-1.717S12.113,13.5,12.214,14.423Z" transform="translate(-7.111 -5.53)" fill="url(#de)"/><path d="M13.761,13.432c-.881.3-1.551.685-1.489.869s.827.091,1.711-.207,1.551-.687,1.487-.871S14.645,13.134,13.761,13.432Z" transform="translate(-6.37 -5.206)" fill="url(#df)"/><ellipse cx="0.348" cy="1.686" rx="0.348" ry="1.686" transform="translate(5.519 5.724)" fill="url(#dg)"/><path d="M14.4,12.7c-.906.223-1.6.552-1.56.741s.821.163,1.727-.058,1.6-.55,1.556-.738S15.3,12.487,14.4,12.7Z" transform="translate(-5.841 -5.771)" fill="url(#dh)"/><path d="M13.417,12.969c-.06.929-.267,1.673-.457,1.659s-.3-.774-.238-1.706.263-1.673.457-1.661S13.478,12.037,13.417,12.969Z" transform="translate(-5.962 -6.953)" fill="url(#di)"/><path d="M15.074,12.05c-.916.141-1.642.41-1.615.6s.805.228,1.725.087,1.646-.408,1.615-.6S16,11.91,15.074,12.05Z" transform="translate(-5.256 -6.293)" fill="url(#dj)"/><path d="M14.146,12.32c-.139.92-.408,1.642-.606,1.615s-.226-.8-.087-1.725.412-1.646.6-1.613S14.288,11.4,14.146,12.32Z" transform="translate(-5.338 -7.576)" fill="url(#dk)"/><path d="M15.8,11.468c-.927.056-1.673.263-1.659.453s.771.3,1.706.238,1.673-.261,1.659-.453S16.733,11.406,15.8,11.468Z" transform="translate(-4.613 -6.776)" fill="url(#dl)"/><path d="M14.942,11.724c-.219.906-.548,1.6-.738,1.56s-.161-.819.06-1.725S14.813,9.958,15,10,15.165,10.82,14.942,11.724Z" transform="translate(-4.675 -8.134)" fill="url(#dm)"/><ellipse cx="1.686" cy="0.348" rx="1.686" ry="0.348" transform="translate(10.953 3.749)" fill="url(#dn)"/><path d="M15.794,11.191c-.3.885-.685,1.551-.873,1.489s-.083-.831.211-1.711.689-1.547.869-1.487S16.1,10.31,15.794,11.191Z" transform="translate(-3.972 -8.621)" fill="url(#do)"/><path d="M17.377,10.575c-.927-.1-1.694-.033-1.717.159s.71.434,1.638.534,1.694.031,1.713-.163S18.3,10.676,17.377,10.575Z" transform="translate(-3.196 -7.639)" fill="url(#dp)"/><path d="M16.692,10.728c-.376.85-.823,1.481-1,1.4s-.015-.831.356-1.684.823-1.483,1-1.4S17.068,9.875,16.692,10.728Z" transform="translate(-3.23 -9.036)" fill="url(#dq)"/><path d="M17.8,10.653c-.8.47-1.537.718-1.628.552s.472-.685,1.274-1.154,1.535-.72,1.634-.552S18.6,10.181,17.8,10.653Z" transform="translate(-2.731 -8.651)" fill="url(#dr)"/></g></g><path d="M297.8,43.6l4.378-11.527-1.569-.6-4.28,11.269A9.9,9.9,0,0,1,297.8,43.6Z" transform="translate(-269.471 -23.7)" fill="#787a7d"/><path d="M257.732,15.844l-1.57-.6-4.43,11.663a9.957,9.957,0,0,1,1.7.249Z" transform="translate(-228.483 -8.78)" fill="#787a7d"/><path d="M169.086,26.9l-4.431-11.664-1.57.6,4.3,11.318A9.84,9.84,0,0,1,169.086,26.9Z" transform="translate(-147.001 -8.766)" fill="#787a7d"/><path d="M126.2,42.737l-4.281-11.271-1.57.6,4.378,11.528A9.705,9.705,0,0,1,126.2,42.737Z" transform="translate(-107.717 -23.686)" fill="#787a7d"/><path d="M147.588,175.838a8.321,8.321,0,1,0,8.319,8.321A8.32,8.32,0,0,0,147.588,175.838Zm0,14.78a6.459,6.459,0,1,1,6.457-6.46A6.466,6.466,0,0,1,147.588,190.618Z" transform="translate(-125.204 -156.304)" fill="#787a7d"/><path d="M184.594,216.019a5.145,5.145,0,1,0,5.143,5.144A5.149,5.149,0,0,0,184.594,216.019Z" transform="translate(-162.209 -193.306)" fill="#787a7d"/></g></svg>