<svg xmlns="http://www.w3.org/2000/svg" xmlns:xlink="http://www.w3.org/1999/xlink" width="34.066" height="34.758" viewBox="0 0 34.066 34.758"><defs><linearGradient id="a" x1="0.5" x2="0.5" y2="1" gradientUnits="objectBoundingBox"><stop offset="0" stop-color="#787a7d"/><stop offset="0.485" stop-color="#e5e5e5"/><stop offset="1" stop-color="#787a7d"/></linearGradient></defs><g transform="translate(0 0)"><path d="M39.346,10.044a1.037,1.037,0,0,0-.12.012A1.157,1.157,0,0,0,38.2,11.225V13.54a1.157,1.157,0,1,0,2.314.033c0-.011,0-.022,0-.033V11.226a1.157,1.157,0,0,0-1.132-1.181Z" transform="translate(-22.329 -10.044)" fill="url(#a)"/><path d="M19.386,16.672a1.157,1.157,0,0,0-.76,1.9L22.1,22.82a1.157,1.157,0,1,0,1.854-1.386,1.074,1.074,0,0,0-.07-.085L20.41,17.106A1.157,1.157,0,0,0,19.386,16.672Z" transform="translate(-12.904 -13.187)" fill="url(#a)"/><path d="M55.993,16.677a1.156,1.156,0,0,0-.868.434l-3.472,4.243a1.157,1.157,0,1,0,1.713,1.555.994.994,0,0,0,.07-.085l3.472-4.243a1.157,1.157,0,0,0-.916-1.9Z" transform="translate(-28.573 -13.193)" fill="url(#a)"/><path d="M31.242,25.508a1.156,1.156,0,0,0-.891.555l-2.821,4.58L22.239,31.7a1.157,1.157,0,0,0-.591,1.953L25.493,37.5l-.7,5.208a1.158,1.158,0,0,0,1.6,1.217l4.942-2.122,4.942,2.122a1.157,1.157,0,0,0,1.6-1.217l-.7-5.208,3.845-3.845A1.158,1.158,0,0,0,40.44,31.7l-5.292-1.061-2.821-4.58A1.156,1.156,0,0,0,31.242,25.508Z" transform="translate(-14.31 -17.383)" fill="url(#a)"/><path d="M34.511,31.914l2.1,3.412a1.158,1.158,0,0,0,.759.531l3.665.735L38.32,39.3a1.157,1.157,0,0,0-.325.976l.506,3.76-3.532-1.507a1.158,1.158,0,0,0-.917,0l-3.531,1.507.506-3.761A1.157,1.157,0,0,0,30.7,39.3L27.99,36.591l3.664-.735a1.159,1.159,0,0,0,.76-.531Z" transform="translate(-17.481 -20.426)" fill="#fff"/><path d="M9.163,34.3a1.162,1.162,0,0,0-.156,2.315L11.321,37a1.161,1.161,0,0,0,.386-2.29l-2.314-.386A1.139,1.139,0,0,0,9.163,34.3Z" transform="translate(-7.985 -21.558)" fill="url(#a)"/><path d="M67.432,34.3a1.132,1.132,0,0,0-.169.012l-.085.012-2.314.386A1.161,1.161,0,1,0,65.251,37l2.314-.386a1.161,1.161,0,0,0-.133-2.314Z" transform="translate(-34.527 -21.558)" fill="url(#a)"/><path d="M16.313,48.987a1.173,1.173,0,0,0-.4.12L10.9,51.421a1.157,1.157,0,1,0,.811,2.168,1.227,1.227,0,0,0,.153-.07L16.88,51.2a1.167,1.167,0,0,0-.566-2.218Z" transform="translate(-9.011 -28.531)" fill="url(#a)"/><path d="M57.646,49.01a1.158,1.158,0,0,0-.41,2.206l5.015,2.314A1.157,1.157,0,0,0,63.368,51.5a1.091,1.091,0,0,0-.153-.07L58.2,49.119A1.153,1.153,0,0,0,57.646,49.01Z" transform="translate(-31.046 -28.54)" fill="url(#a)"/><path d="M39.346,61.449a1.035,1.035,0,0,0-.12.012A1.156,1.156,0,0,0,38.2,62.63v5.4a1.157,1.157,0,1,0,2.314.033c0-.011,0-.022,0-.033v-5.4a1.157,1.157,0,0,0-1.132-1.181Z" transform="translate(-22.329 -34.447)" fill="url(#a)"/><path d="M23.5,62.939a1.156,1.156,0,0,0-.916.578l-1.157,1.929a1.157,1.157,0,1,0,1.858,1.381,1.2,1.2,0,0,0,.119-.2L24.56,64.7a1.158,1.158,0,0,0-1.061-1.76Z" transform="translate(-14.257 -35.153)" fill="url(#a)"/><path d="M53.971,62.94a1.158,1.158,0,0,0-.916,1.76l1.157,1.929a1.157,1.157,0,1,0,2.1-.982,1.176,1.176,0,0,0-.119-.2l-1.157-1.929A1.157,1.157,0,0,0,53.971,62.94Z" transform="translate(-29.3 -35.154)" fill="url(#a)"/></g></svg>